<svg xmlns="http://www.w3.org/2000/svg" width="320" height="320" viewBox="0 0 320 320" role="img" aria-label="Illustrated client headshot">
  <defs>
    <linearGradient id="bg7" x1="0" y1="0" x2="1" y2="1">
      <stop offset="0%" stop-color="#ede9fe"/>
      <stop offset="100%" stop-color="#c4b5fd"/>
    </linearGradient>
  </defs>
  <rect width="320" height="320" fill="url(#bg7)"/>
  <circle cx="160" cy="124" r="62" fill="#b97d55"/>
  <path d="M94 120c6-46 31-73 66-73 35 0 61 25 66 73-18-13-32-19-54-19-24 0-40 9-57 19z" fill="#0f172a"/>
  <path d="M95 284c9-44 33-72 65-72 34 0 57 28 65 72z" fill="#7c3aed"/>
  <circle cx="139" cy="124" r="4" fill="#1f2937"/>
  <circle cx="181" cy="124" r="4" fill="#1f2937"/>
  <path d="M145 149c7 5 23 5 30 0" fill="none" stroke="#7c2d12" stroke-width="4" stroke-linecap="round"/>
</svg>
