<svg xmlns="http://www.w3.org/2000/svg" width="320" height="320" viewBox="0 0 320 320" role="img" aria-label="Illustrated client headshot">
  <defs>
    <linearGradient id="bg6" x1="0" y1="0" x2="1" y2="1">
      <stop offset="0%" stop-color="#fee2e2"/>
      <stop offset="100%" stop-color="#fecaca"/>
    </linearGradient>
  </defs>
  <rect width="320" height="320" fill="url(#bg6)"/>
  <circle cx="160" cy="124" r="62" fill="#f1c29a"/>
  <path d="M92 121c5-48 31-74 68-74 33 0 60 24 67 74-8-8-17-14-28-18-13 15-30 24-53 24-20 0-35-4-54-6z" fill="#7f1d1d"/>
  <path d="M101 284c8-45 29-72 59-72 31 0 52 27 59 72z" fill="#ef4444"/>
  <circle cx="138" cy="124" r="4" fill="#1f2937"/>
  <circle cx="182" cy="124" r="4" fill="#1f2937"/>
  <path d="M143 149c7 6 27 6 34 0" fill="none" stroke="#7c2d12" stroke-width="4" stroke-linecap="round"/>
</svg>
