<svg xmlns="http://www.w3.org/2000/svg" width="320" height="320" viewBox="0 0 320 320" role="img" aria-label="Illustrated client headshot">
  <defs>
    <linearGradient id="bg2" x1="0" y1="0" x2="1" y2="1">
      <stop offset="0%" stop-color="#cffafe"/>
      <stop offset="100%" stop-color="#bfdbfe"/>
    </linearGradient>
  </defs>
  <rect width="320" height="320" fill="url(#bg2)"/>
  <circle cx="160" cy="124" r="62" fill="#e3b18f"/>
  <path d="M97 116c5-42 31-70 63-70s57 28 63 70c-13-11-28-18-41-18s-22 4-35 12c-16 9-33 9-50 6z" fill="#111827"/>
  <path d="M95 284c7-45 31-72 65-72 35 0 56 27 65 72z" fill="#2563eb"/>
  <circle cx="139" cy="124" r="4" fill="#1f2937"/>
  <circle cx="181" cy="124" r="4" fill="#1f2937"/>
  <path d="M144 149c8 7 24 7 32 0" fill="none" stroke="#7c2d12" stroke-width="4" stroke-linecap="round"/>
</svg>
