<svg xmlns="http://www.w3.org/2000/svg" width="320" height="320" viewBox="0 0 320 320" role="img" aria-label="Illustrated client headshot">
  <defs>
    <linearGradient id="bg3" x1="0" y1="0" x2="1" y2="1">
      <stop offset="0%" stop-color="#fce7f3"/>
      <stop offset="100%" stop-color="#ddd6fe"/>
    </linearGradient>
  </defs>
  <rect width="320" height="320" fill="url(#bg3)"/>
  <circle cx="160" cy="124" r="62" fill="#f4c9ad"/>
  <path d="M92 122c3-50 33-76 68-76 33 0 61 22 68 73-18-12-37-20-68-20-31 0-50 11-68 23z" fill="#5b21b6"/>
  <path d="M99 284c9-46 31-72 61-72s51 26 61 72z" fill="#9333ea"/>
  <circle cx="138" cy="124" r="4" fill="#1f2937"/>
  <circle cx="182" cy="124" r="4" fill="#1f2937"/>
  <path d="M143 148c6 6 28 6 34 0" fill="none" stroke="#7c2d12" stroke-width="4" stroke-linecap="round"/>
</svg>
