<svg xmlns="http://www.w3.org/2000/svg" width="320" height="320" viewBox="0 0 320 320" role="img" aria-label="Illustrated client headshot">
  <defs>
    <linearGradient id="bg8" x1="0" y1="0" x2="1" y2="1">
      <stop offset="0%" stop-color="#f0f9ff"/>
      <stop offset="100%" stop-color="#bae6fd"/>
    </linearGradient>
  </defs>
  <rect width="320" height="320" fill="url(#bg8)"/>
  <circle cx="160" cy="124" r="62" fill="#f1caa8"/>
  <path d="M88 122c9-52 36-78 72-78 33 0 58 25 64 78-14-11-31-19-49-21-10 14-21 22-35 22-16 0-31-5-52-1z" fill="#334155"/>
  <path d="M98 284c10-46 30-72 62-72s54 26 62 72z" fill="#0284c7"/>
  <circle cx="138" cy="124" r="4" fill="#1f2937"/>
  <circle cx="182" cy="124" r="4" fill="#1f2937"/>
  <path d="M143 149c6 7 28 7 34 0" fill="none" stroke="#7c2d12" stroke-width="4" stroke-linecap="round"/>
</svg>
