<svg xmlns="http://www.w3.org/2000/svg" width="320" height="320" viewBox="0 0 320 320" role="img" aria-label="Illustrated client headshot">
  <defs>
    <linearGradient id="bg5" x1="0" y1="0" x2="1" y2="1">
      <stop offset="0%" stop-color="#d1fae5"/>
      <stop offset="100%" stop-color="#a7f3d0"/>
    </linearGradient>
  </defs>
  <rect width="320" height="320" fill="url(#bg5)"/>
  <circle cx="160" cy="124" r="62" fill="#f0b995"/>
  <path d="M90 124c11-48 35-75 70-75 31 0 56 22 67 65-14-6-29-9-46-9-29 0-58 8-91 19z" fill="#14532d"/>
  <path d="M98 284c8-46 31-72 62-72 30 0 52 26 62 72z" fill="#10b981"/>
  <circle cx="138" cy="124" r="4" fill="#1f2937"/>
  <circle cx="182" cy="124" r="4" fill="#1f2937"/>
  <path d="M143 148c6 6 28 6 34 0" fill="none" stroke="#7c2d12" stroke-width="4" stroke-linecap="round"/>
</svg>
